<svg width="780" height="780" viewBox="0 0 780 780" fill="none" xmlns="http://www.w3.org/2000/svg">
<rect width="780" height="780" fill="#5D5CD6"/>
<path d="M780 390C780 605.391 605.391 780 390 780C174.609 780 0 605.391 0 390C0 174.609 174.609 0 390 0C605.391 0 780 174.609 780 390Z" fill="#5D5CD6"/>
<path d="M237.591 596.075H615.277C628.139 596.075 638.56 608.842 638.56 624.598C638.56 640.347 628.139 653.114 615.277 653.114H173.564C149.406 653.114 136.657 618.075 152.815 596.075L421.365 230.251C429.277 219.477 442.522 217.678 452.164 226.075C463.511 235.949 465.297 255.724 455.995 268.397L230.251 575.904C224.54 583.684 229.05 596.075 237.591 596.075Z" fill="#0DBA67"/>
<path d="M546.242 188.779H186.217C173.361 188.779 162.933 176.012 162.933 160.256C162.933 144.501 173.361 131.733 186.217 131.733H610.275C634.427 131.733 647.176 166.779 631.018 188.779L362.468 554.597C354.556 565.377 341.31 567.169 331.668 558.773C320.322 548.905 318.536 529.124 327.838 516.457L553.582 208.95C559.292 201.17 554.783 188.779 546.242 188.779Z" fill="#FFB800"/>
</svg>
