<svg width="683" height="387" viewBox="0 0 683 387" fill="none" xmlns="http://www.w3.org/2000/svg">






<path d="M166.811 300.552H154.261L154.183 366.2C154.178 370.268 150.88 373.563 146.812 373.563C142.737 373.563 139.435 370.257 139.441 366.182L139.519 300.552H131.797C127.726 300.552 124.426 297.252 124.426 293.181C124.426 289.11 127.726 285.81 131.797 285.81H139.519L139.673 249.272C139.691 245.213 142.986 241.931 147.044 241.931C151.128 241.931 154.434 245.251 154.416 249.335L154.261 285.81H166.811C170.882 285.81 174.182 289.11 174.182 293.181C174.182 297.252 170.882 300.552 166.811 300.552Z" fill="#5D5CD6"/>
<path d="M203.479 323.456H249.549C253.097 323.456 255.565 319.954 254.413 316.6C253.616 314.281 252.526 312.079 251.142 309.985C248.449 305.921 245.027 302.657 240.875 300.202C236.72 297.742 232.186 296.514 227.273 296.514C222.358 296.514 217.851 297.715 213.758 300.111C209.662 302.512 206.283 305.743 203.624 309.811C201.864 312.494 200.547 315.39 199.67 318.494C198.966 320.985 200.89 323.456 203.479 323.456ZM227.273 375.845C219.199 375.845 211.841 373.768 205.202 369.613C198.562 365.46 193.268 359.889 189.318 352.898C185.37 345.906 183.396 338.168 183.396 329.686C183.396 323.251 184.536 317.238 186.818 311.652C189.099 306.066 192.243 301.153 196.252 296.909C200.258 292.669 204.923 289.349 210.248 286.949C215.571 284.552 221.246 283.351 227.273 283.351C233.882 283.351 239.953 284.683 245.481 287.344C251.009 290.006 255.748 293.707 259.698 298.446C263.647 303.185 266.599 308.684 268.561 314.945C268.581 315.007 268.6 315.068 268.619 315.132C271.676 325.042 264.014 335.038 253.644 335.038H203.974C201.372 335.038 199.44 337.535 200.175 340.029C201.058 343.028 202.337 345.795 204.017 348.333C206.592 352.225 209.881 355.311 213.891 357.592C217.897 359.874 222.358 361.044 227.273 361.102C232.538 361.102 237.306 359.742 241.577 357.022C244.554 355.124 247.134 352.737 249.316 349.857C251.114 347.482 254.106 346.341 257.007 347.02C262.336 348.268 264.535 354.623 261.158 358.929C258.335 362.53 254.966 365.696 251.053 368.428C243.975 373.374 236.049 375.845 227.273 375.845Z" fill="#5D5CD6"/>
<path d="M351.738 353.019L351.808 353.058C356.264 355.465 357.104 361.625 353.307 364.979C350.776 367.213 347.975 369.168 344.905 370.841C338.791 374.176 332.167 375.845 325.028 375.845C316.954 375.845 309.597 373.769 302.959 369.613C296.319 365.46 291.024 359.888 287.075 352.898C283.127 345.906 281.151 338.168 281.151 329.686C281.151 323.251 282.292 317.238 284.573 311.652C286.855 306.066 289.999 301.153 294.007 296.909C298.015 292.669 302.679 289.349 308.006 286.949C313.327 284.552 319.003 283.351 325.028 283.351C332.167 283.351 338.791 285.02 344.905 288.351C348 290.042 350.823 292.023 353.371 294.298C357.142 297.662 356.301 303.802 351.85 306.202C349.154 307.659 345.785 307.381 343.499 305.34C341.496 303.551 339.29 302.073 336.877 300.902C333.016 299.03 329.066 298.096 325.028 298.096C319.587 298.096 314.659 299.542 310.241 302.439C305.824 305.335 302.329 309.181 299.755 313.976C297.18 318.775 295.894 324.013 295.894 329.686C295.894 335.361 297.197 340.584 299.8 345.35C302.402 350.117 305.912 353.937 310.33 356.8C314.746 359.669 319.647 361.102 325.028 361.102C329.358 361.102 333.422 360.108 337.227 358.119C339.451 356.955 341.476 355.59 343.299 354.028C345.665 351.998 348.993 351.539 351.738 353.019Z" fill="#5D5CD6"/>
<path d="M453.061 318.98V366.19C453.061 370.263 449.761 373.563 445.692 373.563H445.69C441.617 373.563 438.318 370.263 438.318 366.19V322.226C438.318 317.783 437.233 313.744 435.071 310.116C432.906 306.489 430.011 303.608 426.384 301.474C422.755 299.339 418.719 298.27 414.274 298.27C409.887 298.27 405.863 299.339 402.207 301.474C398.549 303.608 395.639 306.489 393.475 310.116C391.31 313.744 390.229 317.783 390.229 322.226V366.19C390.229 370.263 386.929 373.563 382.858 373.563C378.788 373.563 375.486 370.263 375.486 366.19V249.303C375.486 245.233 378.788 241.931 382.858 241.931C386.929 241.931 390.229 245.233 390.229 249.303V292.287C390.229 293.793 392.045 294.526 393.105 293.455C395.648 290.879 398.611 288.724 401.989 286.993C406.726 284.565 411.875 283.35 417.432 283.35C423.986 283.35 429.967 284.946 435.377 288.134C440.788 291.323 445.089 295.607 448.277 300.99C451.466 306.373 453.061 312.367 453.061 318.98Z" fill="#5D5CD6"/>
<path d="M461.658 261.977L473.15 272.616C480.619 279.531 491.209 281.94 500.934 278.936L516.74 274.05C517.028 273.961 517.182 274.373 516.91 274.498L503.388 280.663C498.419 282.929 495.233 287.887 495.239 293.35L495.284 332L495.364 386.412L487.323 337.972C487.111 336.702 485.336 336.57 484.941 337.796L472.052 377.763L475.742 345.919C476.802 336.779 477.326 327.582 477.315 318.382L477.29 297.674C477.279 287.884 473.868 278.402 467.641 270.849L460.91 262.685C460.5 262.188 461.186 261.542 461.658 261.977ZM486.601 262.132C483.752 262.132 481.365 261.208 479.442 259.354C477.517 257.502 476.557 255.187 476.557 252.409C476.557 249.629 477.517 247.316 479.442 245.462C481.365 243.611 483.716 242.684 486.492 242.684C489.273 242.684 491.624 243.611 493.548 245.462C495.471 247.316 496.432 249.629 496.432 252.409C496.432 255.187 495.487 257.502 493.598 259.354C491.712 261.208 489.38 262.132 486.601 262.132Z" fill="#0DBA67"/>
<path d="M539.273 323.456H585.969C588.675 323.456 590.601 320.865 589.877 318.258C589.065 315.33 587.804 312.572 586.093 309.985C583.4 305.921 579.979 302.657 575.824 300.202C571.669 297.742 567.137 296.514 562.222 296.514C557.307 296.514 552.804 297.715 548.708 300.111C544.613 302.512 541.235 305.743 538.573 309.811C537.013 312.193 535.799 314.74 534.932 317.454C533.987 320.417 536.164 323.456 539.273 323.456ZM562.222 375.845C554.149 375.845 546.794 373.768 540.152 369.613C533.513 365.46 528.217 359.889 524.268 352.898C520.321 345.906 518.346 338.168 518.346 329.686C518.346 323.251 519.489 317.238 521.769 311.652C524.05 306.066 527.196 301.153 531.202 296.909C535.209 292.669 539.874 289.349 545.201 286.949C550.522 284.552 556.197 283.351 562.222 283.351C568.834 283.351 574.904 284.683 580.432 287.344C585.96 290.006 590.699 293.707 594.647 298.446C598.597 303.185 601.551 308.684 603.51 314.945C603.53 315.007 603.55 315.068 603.568 315.132C606.627 325.042 598.965 335.038 588.595 335.038H539.78C536.661 335.038 534.469 338.103 535.451 341.065C536.311 343.669 537.485 346.093 538.969 348.333C541.541 352.225 544.832 355.311 548.84 357.592C552.846 359.874 557.307 361.044 562.222 361.102C567.489 361.102 572.255 359.742 576.528 357.022C579.505 355.124 582.085 352.737 584.268 349.857C586.066 347.482 589.057 346.341 591.958 347.02C597.287 348.268 599.486 354.623 596.11 358.929C593.286 362.53 589.917 365.696 586.004 368.428C578.925 373.374 570.998 375.845 562.222 375.845Z" fill="#5D5CD6"/>
<path d="M648.308 375.23C643.571 375.052 638.962 374.162 634.488 372.552C630.011 370.947 626.092 368.751 622.728 365.972C622.05 365.413 621.409 364.836 620.807 364.241C617.365 360.85 618.425 355.061 622.864 353.15L623.035 353.076C625.622 351.962 628.621 352.561 630.577 354.589C631.217 355.253 631.95 355.904 632.776 356.538C635.058 358.292 637.691 359.696 640.673 360.752C643.658 361.805 646.669 362.331 649.712 362.331C652.931 362.331 655.944 361.834 658.751 360.838C661.559 359.845 663.854 358.368 665.641 356.407C667.425 354.448 668.316 352.093 668.316 349.342C668.316 346.418 667.336 344.123 665.377 342.455C663.415 340.786 660.959 339.471 658.005 338.505C655.05 337.54 652.051 336.619 649.012 335.741C642.983 334.22 637.603 332.393 632.863 330.256C628.124 328.121 624.395 325.401 621.674 322.095C618.954 318.791 617.594 314.564 617.594 309.415C617.594 303.974 619.1 299.266 622.113 295.287C625.127 291.309 629.089 288.237 634.004 286.071C638.919 283.908 644.186 282.823 649.799 282.823C656.878 282.823 663.343 284.345 669.194 287.388C672.209 288.956 674.827 290.812 677.05 292.952C680.25 296.042 679.524 301.367 675.687 303.613C673.056 305.154 669.685 304.791 667.545 302.623C667.028 302.098 666.467 301.599 665.859 301.12C663.811 299.515 661.47 298.239 658.84 297.305C656.207 296.369 653.515 295.872 650.766 295.814C647.372 295.696 644.197 296.135 641.243 297.129C638.289 298.125 635.92 299.629 634.135 301.646C632.351 303.668 631.46 306.168 631.46 309.15C631.46 312.077 632.409 314.301 634.312 315.821C636.212 317.342 638.699 318.557 641.769 319.465C644.842 320.37 648.192 321.408 651.82 322.58C657.141 324.276 662.113 326.234 666.735 328.458C671.358 330.682 675.087 333.46 677.924 336.793C680.762 340.127 682.15 344.253 682.093 349.166C682.093 354.551 680.484 359.245 677.267 363.252C674.049 367.258 669.881 370.315 664.761 372.42C659.642 374.528 654.159 375.462 648.308 375.23Z" fill="#5D5CD6"/>
<path d="M130.977 101.612H174.451C177.733 101.612 180.186 98.4349 179.183 95.3089C178.373 92.7906 177.221 90.3994 175.728 88.1406C173.036 84.0766 169.612 80.8127 165.459 78.358C161.305 75.8997 156.773 74.6696 151.858 74.6696C146.943 74.6696 142.438 75.8706 138.343 78.2691C134.248 80.6676 130.868 83.9007 128.208 87.9665C127.084 89.6828 126.138 91.488 125.375 93.3767C123.783 97.3137 126.73 101.612 130.977 101.612ZM151.858 154.001C143.784 154.001 136.427 151.922 129.787 147.769C123.148 143.616 117.852 138.044 113.905 131.054C109.955 124.062 107.981 116.324 107.981 107.842C107.981 101.409 109.122 95.396 111.403 89.808C113.685 84.2218 116.829 79.3087 120.837 75.0651C124.843 70.8251 129.509 67.505 134.834 65.1047C140.157 62.708 145.832 61.5088 151.858 61.5088C158.469 61.5088 164.539 62.8386 170.066 65.5002C175.596 68.1617 180.335 71.8629 184.283 76.6018C188.232 81.3407 191.186 86.8398 193.145 93.0991C193.169 93.1753 193.192 93.2497 193.216 93.324C196.26 103.219 188.619 113.196 178.266 113.196H131.507C127.247 113.196 124.277 117.527 125.919 121.456C126.657 123.225 127.552 124.903 128.602 126.489C131.177 130.379 134.468 133.467 138.475 135.747C142.481 138.03 146.943 139.2 151.858 139.258C157.123 139.258 161.891 137.897 166.163 135.178C169.141 133.28 171.72 130.892 173.901 128.013C175.701 125.638 178.693 124.497 181.592 125.176C186.921 126.424 189.121 132.777 185.745 137.085C182.922 140.686 179.553 143.852 175.639 146.586C168.56 151.53 160.633 154.001 151.858 154.001Z" fill="#FFB800"/>
<path d="M73.4426 72.562C73.2158 72.3642 72.989 72.1664 72.7586 71.9741C69.9918 69.641 65.7518 71.6167 65.7518 75.238V81.1599C65.7518 84.1516 66.7479 87.0273 68.4261 89.5019C71.6809 94.2953 73.5424 100.112 73.439 106.362C73.1868 121.432 61.1653 134.05 46.1231 134.979C29.174 136.026 15.0843 122.587 15.0843 105.863C15.0843 99.3789 17.207 93.379 20.7957 88.5294C22.6735 85.9931 23.762 82.9632 23.762 79.81V74.4488C23.762 70.8765 19.6363 68.9044 16.8333 71.1214C6.04916 79.6431 -0.669135 93.0797 0.0529506 108.058C1.16329 131.074 20.2895 149.645 43.3273 150.124C54.8679 150.366 65.438 146.184 73.4426 139.164V328.715C73.4426 343.937 62.009 357.06 46.8415 358.357C34.0291 359.457 22.7497 352.256 17.7858 341.542C16.5847 338.946 14.052 337.232 11.1927 337.232H10.9985C5.49762 337.232 1.77108 342.908 4.07522 347.876C11.1038 363.042 26.4599 373.566 44.2707 373.566C55.4431 373.566 65.6575 369.424 73.4426 362.597C82.6991 354.475 88.5411 342.573 88.5411 329.298V105.863C88.5411 92.5862 82.6991 80.6863 73.4426 72.562Z" fill="#FFB800"/>
<path d="M289.7 100.294V144.277C289.7 148.387 286.371 151.718 282.262 151.718H281.959C277.851 151.718 274.52 148.387 274.52 144.277V101.108C274.52 86.8715 262.856 75.3708 248.667 76.5646C236.46 77.5896 226.877 87.8204 226.877 100.294V144.408C226.877 148.445 223.604 151.718 219.567 151.718C215.46 151.718 212.129 148.387 212.129 144.277V100.294C212.129 87.9474 217.889 76.951 226.877 69.8662C233.488 64.6193 241.841 61.5006 250.92 61.5006C259.801 61.5006 267.991 64.4833 274.52 69.5306C283.75 76.5991 289.7 87.746 289.7 100.294Z" fill="#FFB800"/>
<path d="M346.194 133.945H455.142C458.852 133.945 461.858 137.628 461.858 142.172C461.858 146.715 458.852 150.398 455.142 150.398H327.725C320.756 150.398 317.078 140.291 321.739 133.945L399.206 28.4186C401.488 25.3107 405.309 24.7918 408.09 27.2139C411.363 30.0623 411.878 35.7664 409.195 39.4222L344.077 128.126C342.429 130.37 343.73 133.945 346.194 133.945Z" fill="#FFB800"/>
<path d="M435.322 16.4556H331.469C327.761 16.4556 324.753 12.7726 324.753 8.22778C324.753 3.683 327.761 0 331.469 0H453.794C460.761 0 464.438 10.1092 459.777 16.4556L382.311 121.98C380.028 125.089 376.208 125.607 373.426 123.184C370.153 120.338 369.638 114.632 372.321 110.978L437.44 22.274C439.087 20.0297 437.786 16.4556 435.322 16.4556Z" fill="#FFB800"/>
<path d="M44.2732 107.755C47.4155 107.755 49.9646 105.205 49.9646 102.061V46.2484C49.9646 43.1043 47.4155 40.557 44.2732 40.557C41.129 40.557 38.5818 43.1043 38.5818 46.2484V102.061C38.5818 105.205 41.129 107.755 44.2732 107.755Z" fill="#FFB800"/>
</svg>
